<svg xmlns="http://www.w3.org/2000/svg" width="426.358" height="135.628" viewBox="0 0 426.358 135.628"><path fill="#E94A36" d="M64.462 32.229c0 17.805-14.428 32.233-32.233 32.233C14.428 64.462 0 50.034 0 32.229 0 14.428 14.428 0 32.229 0c17.805 0 32.233 14.428 32.233 32.229z"/><path fill="#FFF" d="M184.721 83.805c0-21.885-9.017-32.817-27.067-32.817-9.924 0-17.784 3.953-23.603 11.852-5.271-7.898-12.415-11.852-21.475-11.852-4.051 0-7.432.682-10.118 2.055-2.517 1.313-5.56 3.839-9.127 7.564l-.373-.301c-1-4.042-4.483-7.102-8.839-7.102-5.145 0-9.297 4.161-9.297 9.288v61.353c0 5.11 4.145 9.25 9.254 9.25 5.11 0 9.255-4.14 9.255-9.25V91.954c0-8.39 1.194-14.538 3.576-18.432 2.386-3.891 6.187-5.839 11.394-5.839 8.225 0 12.344 7.131 12.344 21.394v34.068c-.013.212-.123.394-.123.61 0 .22.11.402.123.609.326 4.856 4.279 8.729 9.221 8.729 5.152 0 9.326-4.183 9.326-9.339h.047v-31.8c0-8.495 1.156-14.674 3.486-18.513 2.336-3.83 6.056-5.758 11.148-5.758 4.391 0 7.534 1.623 9.467 4.852 1.864 3.19 2.797 8.614 2.797 16.297v34.928h.098c0 .029-.018.055-.018.085 0 5.11 4.145 9.25 9.259 9.25 5.11 0 9.245-4.14 9.245-9.25 0-.03-.008-.056-.008-.085h.008V83.805zM270.519 53.204c-5.128 0-9.288 4.161-9.288 9.297-7.403-7.674-15.768-11.513-25.094-11.513-10.805 0-19.797 4.004-26.979 12.013-7.188 8.009-10.775 18.004-10.775 30.017 0 12.238 3.588 22.433 10.775 30.61 7.241 8.005 16.402 12.001 27.475 12.001 8.771 0 16.975-3.56 24.598-10.688l.22.204c.581 4.585 4.339 8.178 9.068 8.178a9.288 9.288 0 0 0 9.301-9.297V62.5a9.291 9.291 0 0 0-9.301-9.296zm-14.475 58.827c-4.221 4.716-9.763 7.071-16.619 7.071-6.415 0-11.729-2.449-15.958-7.33-4.109-4.813-6.165-11.068-6.165-18.755 0-7.178 2.114-13.212 6.335-18.093 4.271-4.822 9.598-7.242 15.958-7.242 6.745 0 12.229 2.394 16.449 7.157 4.229 4.877 6.343 11.085 6.343 18.589 0 7.526-2.115 13.717-6.343 18.603zM346.366 57.132c-.801-1.462-1.962-2.631-3.382-3.509-1.021-.458-2.025-.822-3.017-1.161-2.805-.954-5.542-1.475-8.212-1.475-3.678 0-6.869.682-9.551 2.055-2.627 1.313-5.657 3.754-9.051 7.322l-.187-.14c-1.067-4.013-4.572-7.021-8.915-7.021a9.395 9.395 0 0 0-9.398 9.407v61.196a9.282 9.282 0 0 0 9.297 9.288c4.982 0 8.986-3.949 9.203-8.89.017-.136.085-.255.085-.398 0-.145-.068-.263-.085-.398V91.789c0-15.254 5.051-22.873 15.144-22.873 1.882 0 3.802.449 5.751 1.254.203.085.419.195.631.293 1.06.411 2.208.69 3.415.69.496 0 .924-.212 1.39-.284 4.581-.699 8.148-4.479 8.148-9.25.001-1.653-.532-3.127-1.266-4.487z"/><g fill="#FFF"><path d="M398.036 61.534a8.37 8.37 0 0 0-.648-.834c-.042-.047-.106-.072-.157-.115.458.636.865 1.225 1.128 1.619-.116-.212-.187-.462-.323-.67z"/><path d="M401.1 94.466c-3.402-3.559-10.013-7.44-19.826-11.669-7.136-3-10.699-6.051-10.699-9.119 0-1.741.605-3.187 1.809-4.305 1.212-1.127 2.661-1.691 4.365-1.691 2.475.004 4.648 1.208 6.567 3.555a8.99 8.99 0 0 0 3.572 3.14c1.174.572 2.444.962 3.835.962 4.432 0 7.94-3.313 8.58-7.568.063-.432.259-.822.259-1.275 0-1.102-.259-2.131-.627-3.106-.06-.136-.072-.284-.128-.415-.051-.195-.084-.31-.102-.237 0 0-.135-.221-.347-.534.067.119.114.246.182.356-.377-.733-.817-1.432-1.377-2.03.017.021.042.03.067.055a21.651 21.651 0 0 0-1.457-1.864c-4.585-5.153-10.467-7.733-17.627-7.733-6.967 0-12.886 2.267-17.771 6.826-4.771 4.551-7.152 10.318-7.152 17.279 0 5.264 1.406 9.56 4.194 12.911 2.195 2.632 5.975 5.259 11.356 7.895 1.91.937 3.813 1.839 5.678 2.712a389.69 389.69 0 0 1 5.589 2.712c4.826 2.864 7.241 5.937 7.241 9.225 0 5.694-3.127 8.555-9.381 8.555-3.127 0-5.813-1.046-8.068-3.127-.66-.605-1.542-1.788-2.559-3.33a16.926 16.926 0 0 0-.382-.551c-.076-.119-.136-.195-.216-.322-.148-.229-.407-.5-.725-.792a9.333 9.333 0 0 0-1.882-1.475c-.254-.183-.44-.302-.44-.302-1.246-.652-2.602-1.118-4.11-1.118-4.271 0-7.674 3.025-8.602 7.017-.152.661-.398 1.28-.398 1.992 0 1.127.263 2.187.645 3.187.652 1.169 1.377 2.229 2.11 3.263 5.703 8.017 13.779 12.085 24.296 12.085 7.848 0 14.534-2.458 20.077-7.395 5.703-5.195 8.551-11.657 8.551-19.386 0-6.026-1.699-10.823-5.097-14.383zm-5.844-35.373c-.33-.203-.593-.491-.949-.644.356.161.619.441.949.644z"/></g><g fill="#FFF"><path d="M338.584 15.065c-.261-1.669-1.349-2.503-3.261-2.503h-.461l.368-1.976h7.049l2.183 13.918c.552 3.551.91 6.33 1.079 8.336h.14c2.343-2.25 4.37-4.88 6.085-7.889 1.715-3.008 2.573-5.423 2.573-7.246 0-1.103-.269-1.975-.804-2.618-.537-.644-1.242-.965-2.114-.965 0-1.133.307-2.043.919-2.733.613-.689 1.369-1.033 2.272-1.033 2.128 0 3.193 1.455 3.193 4.363 0 2.849-1.085 6.183-3.25 10.002-2.166 3.82-4.987 7.498-8.463 11.035l-4.226.459-3.282-21.15zM361.343 12.562l.415-1.976h8.427l-3.192 15.111c-.473 2.25-.713 3.989-.713 5.214 0 1.592.521 2.388 1.562 2.388.904 0 2.028-.406 3.377-1.218l.849 1.378c-2.174 1.868-4.294 2.802-6.36 2.802-1.164 0-2.106-.421-2.825-1.263-.72-.842-1.078-1.906-1.078-3.192 0-1.409.351-3.873 1.056-7.395l1.814-8.635c.104-.505.159-.918.159-1.24 0-1.316-.956-1.975-2.87-1.975h-.621zm7.625-6.683c-1.76 0-2.641-.858-2.641-2.572 0-.995.255-1.796.77-2.4.512-.605 1.198-.907 2.055-.907 1.761 0 2.641.865 2.641 2.595 0 1.072-.265 1.887-.793 2.446-.527.559-1.207.838-2.032.838zM389.752 17.545c0-1.576-.371-2.839-1.113-3.789-.744-.949-1.782-1.424-3.112-1.424-1.409 0-2.524.379-3.342 1.137-.819.758-1.229 1.726-1.229 2.905 0 1.042.391 1.929 1.172 2.664s1.99 1.462 3.628 2.182c3.767 1.685 5.651 4.119 5.651 7.303 0 2.312-.89 4.179-2.666 5.604-1.776 1.424-4.134 2.136-7.072 2.136-2.374 0-4.26-.478-5.661-1.436-1.401-.957-2.101-2.246-2.101-3.87 0-1.01.277-1.779.838-2.307.559-.528 1.266-.793 2.124-.793 0 1.945.472 3.457 1.413 4.536s2.261 1.62 3.96 1.62c3.384 0 5.075-1.456 5.075-4.364 0-1.117-.359-2.062-1.078-2.836-.721-.773-1.945-1.557-3.674-2.354-2.251-1.071-3.764-2.177-4.537-3.318-.772-1.141-1.159-2.461-1.159-3.961 0-2.052.839-3.732 2.515-5.042 1.678-1.309 3.861-1.964 6.556-1.964 2.312 0 4.115.43 5.409 1.286 1.293.858 1.941 1.915 1.941 3.17-.001 1.944-1.181 2.915-3.538 2.915zM397.467 12.562l.415-1.976h8.428l-3.193 15.111c-.474 2.25-.71 3.989-.71 5.214 0 1.592.52 2.388 1.561 2.388.905 0 2.027-.406 3.376-1.218l.85 1.378c-2.175 1.868-4.294 2.802-6.361 2.802-1.163 0-2.106-.421-2.825-1.263-.72-.842-1.079-1.906-1.079-3.192 0-1.409.352-3.873 1.056-7.395l1.814-8.635c.106-.505.162-.918.162-1.24 0-1.316-.958-1.975-2.872-1.975h-.622zm7.625-6.683c-1.76 0-2.641-.858-2.641-2.572 0-.995.256-1.796.77-2.4.512-.605 1.199-.907 2.055-.907 1.76 0 2.641.865 2.641 2.595 0 1.072-.265 1.887-.792 2.446-.529.559-1.207.838-2.033.838zM423.005 32.267l.805 1.746c-2.114 1.5-4.226 2.25-6.339 2.25-3.415 0-5.122-1.83-5.122-5.489 0-1.179.154-2.496.46-3.95l2.871-13.549h-3.582l.436-1.883c3.062 0 5.458-2.197 7.188-6.591h2.159l-1.216 5.787h5.694l-.573 2.688h-5.696l-2.849 13.411c-.383 1.808-.573 3.155-.573 4.042 0 1.715.834 2.572 2.504 2.572 1.267-.001 2.548-.346 3.833-1.034z"/></g></svg>