<svg xmlns="http://www.w3.org/2000/svg" width="426.358" height="135.628" viewBox="0 0 426.358 135.628"><path fill="#E94A36" d="M64.462 32.23c0 17.804-14.428 32.232-32.233 32.232C14.427 64.462 0 50.034 0 32.23 0 14.427 14.428 0 32.23 0 50.033 0 64.46 14.428 64.46 32.23z"/><path fill="#FFF" d="M184.72 83.805c0-21.885-9.016-32.817-27.066-32.817-9.924 0-17.784 3.953-23.603 11.852-5.27-7.898-12.414-11.852-21.474-11.852-4.05 0-7.432.682-10.118 2.055-2.517 1.313-5.56 3.84-9.127 7.564l-.372-.3c-1-4.043-4.483-7.103-8.84-7.103-5.144 0-9.296 4.16-9.296 9.288v61.353c0 5.11 4.145 9.25 9.254 9.25 5.11 0 9.255-4.14 9.255-9.25v-31.89c0-8.39 1.195-14.54 3.577-18.433 2.386-3.89 6.187-5.84 11.394-5.84 8.226 0 12.345 7.132 12.345 21.395v34.068c-.013.212-.123.394-.123.61 0 .22.11.402.123.61.326 4.855 4.28 8.728 9.22 8.728 5.153 0 9.327-4.183 9.327-9.34h.047v-31.8c0-8.494 1.155-14.673 3.485-18.512 2.336-3.83 6.056-5.757 11.148-5.757 4.39 0 7.534 1.623 9.467 4.852 1.864 3.19 2.797 8.614 2.797 16.297v34.928h.098c0 .03-.018.055-.018.085 0 5.11 4.145 9.25 9.26 9.25 5.11 0 9.244-4.14 9.244-9.25 0-.03-.007-.056-.007-.085h.008V83.805zM270.52 53.204c-5.13 0-9.29 4.16-9.29 9.297-7.402-7.673-15.767-11.512-25.093-11.512-10.805 0-19.797 4.004-26.98 12.013-7.187 8.01-10.774 18.005-10.774 30.018 0 12.238 3.588 22.433 10.775 30.61 7.24 8.005 16.402 12 27.475 12 8.77 0 16.975-3.56 24.598-10.687l.22.205c.582 4.585 4.34 8.178 9.07 8.178 5.147 0 9.3-4.157 9.3-9.297V62.5c0-5.135-4.153-9.296-9.3-9.296zm-14.476 58.827c-4.22 4.717-9.763 7.072-16.62 7.072-6.414 0-11.728-2.45-15.957-7.33-4.11-4.813-6.165-11.068-6.165-18.755 0-7.178 2.114-13.212 6.335-18.093 4.27-4.822 9.598-7.242 15.958-7.242 6.745 0 12.23 2.394 16.45 7.157 4.228 4.876 6.342 11.084 6.342 18.588 0 7.526-2.115 13.717-6.343 18.603zM346.366 57.132c-.8-1.462-1.962-2.63-3.382-3.51-1.02-.457-2.025-.82-3.017-1.16-2.805-.954-5.542-1.475-8.212-1.475-3.678 0-6.87.682-9.55 2.055-2.628 1.313-5.658 3.754-9.052 7.322l-.187-.14c-1.067-4.013-4.572-7.02-8.915-7.02-5.194 0-9.397 4.203-9.397 9.406v61.196c0 5.135 4.152 9.288 9.297 9.288 4.982 0 8.986-3.95 9.203-8.89.017-.136.085-.255.085-.398 0-.145-.068-.263-.085-.398v-31.62c0-15.253 5.05-22.872 15.144-22.872 1.882 0 3.802.45 5.75 1.254.204.085.42.195.632.293 1.06.41 2.207.69 3.414.69.496 0 .924-.212 1.39-.284 4.58-.7 8.148-4.48 8.148-9.25 0-1.654-.532-3.128-1.266-4.488z"/><g fill="#FFF"><path d="M398.036 61.534c-.204-.296-.41-.568-.648-.834-.042-.047-.106-.072-.157-.115.46.636.866 1.225 1.13 1.62-.117-.213-.188-.463-.324-.67z"/><path d="M401.1 94.466c-3.402-3.56-10.013-7.44-19.826-11.67-7.136-3-10.7-6.05-10.7-9.118 0-1.74.606-3.187 1.81-4.305 1.212-1.127 2.66-1.69 4.365-1.69 2.474.003 4.647 1.207 6.566 3.554.882 1.34 2.11 2.428 3.572 3.14 1.174.572 2.444.962 3.835.962 4.432 0 7.94-3.314 8.58-7.57.063-.43.26-.82.26-1.274 0-1.102-.26-2.13-.628-3.106-.06-.136-.072-.284-.128-.415-.05-.195-.084-.31-.102-.237 0 0-.135-.22-.347-.534.067.12.114.246.182.356-.377-.733-.817-1.432-1.377-2.03.017.02.042.03.067.055-.457-.644-.957-1.305-1.457-1.864-4.585-5.152-10.467-7.732-17.627-7.732-6.967 0-12.886 2.267-17.77 6.826-4.772 4.55-7.153 10.318-7.153 17.28 0 5.263 1.406 9.56 4.194 12.91 2.195 2.632 5.975 5.26 11.356 7.895 1.91.936 3.813 1.838 5.678 2.71 1.856.882 3.722 1.79 5.59 2.713 4.826 2.864 7.24 5.937 7.24 9.225 0 5.694-3.126 8.555-9.38 8.555-3.127 0-5.813-1.046-8.068-3.127-.66-.605-1.542-1.788-2.56-3.33-.127-.19-.245-.364-.38-.55-.077-.12-.137-.196-.217-.323-.148-.23-.407-.5-.725-.792-.568-.57-1.187-1.063-1.882-1.474-.254-.183-.44-.302-.44-.302-1.246-.652-2.602-1.118-4.11-1.118-4.27 0-7.674 3.025-8.602 7.017-.152.66-.398 1.28-.398 1.992 0 1.127.263 2.187.645 3.187.652 1.17 1.377 2.23 2.11 3.263 5.703 8.017 13.78 12.085 24.296 12.085 7.847 0 14.533-2.458 20.076-7.395 5.703-5.195 8.55-11.657 8.55-19.386 0-6.027-1.698-10.824-5.096-14.384zm-5.844-35.373c-.33-.203-.593-.49-.95-.644.357.16.62.44.95.643z"/></g><g fill="#FFF"><path d="M338.584 15.065c-.26-1.67-1.35-2.503-3.26-2.503h-.462l.368-1.976h7.05l2.182 13.918c.552 3.55.91 6.33 1.08 8.336h.14c2.342-2.25 4.37-4.88 6.084-7.89 1.715-3.007 2.573-5.422 2.573-7.245 0-1.103-.27-1.975-.805-2.618-.537-.644-1.242-.965-2.114-.965 0-1.133.308-2.043.92-2.733.613-.69 1.37-1.034 2.272-1.034 2.128 0 3.193 1.455 3.193 4.363 0 2.848-1.085 6.182-3.25 10-2.166 3.82-4.987 7.5-8.463 11.036l-4.226.46-3.282-21.15zM361.343 12.562l.415-1.976h8.427l-3.192 15.11c-.473 2.25-.713 3.99-.713 5.215 0 1.593.52 2.39 1.562 2.39.904 0 2.028-.407 3.377-1.22l.848 1.38c-2.174 1.867-4.294 2.8-6.36 2.8-1.164 0-2.106-.42-2.825-1.262-.72-.842-1.078-1.906-1.078-3.192 0-1.41.35-3.873 1.056-7.395l1.815-8.634c.104-.505.16-.918.16-1.24 0-1.316-.957-1.975-2.87-1.975h-.622zm7.625-6.683c-1.76 0-2.64-.86-2.64-2.573 0-.995.254-1.796.77-2.4.51-.605 1.197-.907 2.054-.907 1.76 0 2.64.865 2.64 2.595 0 1.072-.264 1.887-.792 2.446-.527.56-1.207.84-2.032.84zM389.752 17.545c0-1.576-.37-2.84-1.113-3.79-.745-.948-1.783-1.423-3.113-1.423-1.41 0-2.524.38-3.342 1.137-.82.757-1.23 1.725-1.23 2.904 0 1.042.392 1.93 1.173 2.664s1.99 1.462 3.628 2.182c3.767 1.685 5.65 4.12 5.65 7.303 0 2.312-.89 4.18-2.665 5.604-1.775 1.424-4.133 2.136-7.07 2.136-2.375 0-4.26-.478-5.662-1.436-1.4-.957-2.1-2.246-2.1-3.87 0-1.01.276-1.78.837-2.307.56-.528 1.266-.793 2.124-.793 0 1.945.47 3.457 1.412 4.536s2.26 1.62 3.96 1.62c3.384 0 5.075-1.456 5.075-4.364 0-1.118-.36-2.063-1.078-2.837-.722-.773-1.946-1.557-3.675-2.354-2.25-1.072-3.764-2.178-4.537-3.32-.772-1.14-1.16-2.46-1.16-3.96 0-2.052.84-3.732 2.516-5.042 1.678-1.31 3.86-1.964 6.556-1.964 2.312 0 4.115.43 5.41 1.286 1.292.858 1.94 1.915 1.94 3.17 0 1.944-1.18 2.915-3.538 2.915zM397.467 12.562l.415-1.976h8.428l-3.193 15.11c-.474 2.25-.71 3.99-.71 5.215 0 1.593.52 2.39 1.56 2.39.906 0 2.028-.407 3.377-1.22l.85 1.38c-2.175 1.867-4.294 2.8-6.36 2.8-1.164 0-2.107-.42-2.826-1.262-.72-.842-1.08-1.906-1.08-3.192 0-1.41.353-3.873 1.057-7.395l1.814-8.634c.105-.505.16-.918.16-1.24 0-1.316-.957-1.975-2.87-1.975h-.623zm7.625-6.683c-1.76 0-2.64-.86-2.64-2.573 0-.995.255-1.796.77-2.4.51-.605 1.198-.907 2.054-.907 1.76 0 2.64.865 2.64 2.595 0 1.072-.264 1.887-.79 2.446-.53.56-1.208.84-2.034.84zM423.005 32.267l.805 1.746c-2.114 1.5-4.226 2.25-6.34 2.25-3.414 0-5.12-1.83-5.12-5.49 0-1.178.153-2.495.46-3.95l2.87-13.548h-3.582l.436-1.883c3.062 0 5.458-2.197 7.188-6.59h2.16l-1.217 5.786h5.694l-.574 2.688h-5.696l-2.85 13.41c-.382 1.81-.572 3.156-.572 4.043 0 1.714.834 2.57 2.504 2.57 1.267 0 2.548-.345 3.833-1.033z"/></g></svg>