<?xml version="1.0" encoding="utf-8"?>
<!-- Generator: Adobe Illustrator 16.0.0, SVG Export Plug-In . SVG Version: 6.00 Build 0)  -->
<!DOCTYPE svg PUBLIC "-//W3C//DTD SVG 1.1//EN" "http://www.w3.org/Graphics/SVG/1.1/DTD/svg11.dtd">
<svg version="1.1" id="Layer_1" xmlns="http://www.w3.org/2000/svg" xmlns:xlink="http://www.w3.org/1999/xlink" x="0px" y="0px"
	 width="426.358px" height="135.628px" viewBox="0 0 426.358 135.628" enable-background="new 0 0 426.358 135.628"
	 xml:space="preserve">
<path fill="#E94A36" d="M64.462,32.229c0,17.805-14.428,32.233-32.233,32.233C14.428,64.462,0,50.034,0,32.229
	C0,14.428,14.428,0,32.229,0C50.034,0,64.462,14.428,64.462,32.229z"/>
<g>
	<path fill="#FFFFFF" d="M184.721,83.805c0-21.885-9.017-32.817-27.067-32.817c-9.924,0-17.784,3.953-23.603,11.852
		c-5.271-7.898-12.415-11.852-21.475-11.852c-4.051,0-7.432,0.682-10.118,2.055c-2.517,1.313-5.56,3.839-9.127,7.564l-0.373-0.301
		c-1-4.042-4.483-7.102-8.839-7.102c-5.145,0-9.297,4.161-9.297,9.288v61.353c0,5.11,4.145,9.25,9.254,9.25
		c5.11,0,9.255-4.14,9.255-9.25l0,0V91.954c0-8.39,1.194-14.538,3.576-18.432c2.386-3.891,6.187-5.839,11.394-5.839
		c8.225,0,12.344,7.131,12.344,21.394v34.068c-0.013,0.212-0.123,0.394-0.123,0.61c0,0.22,0.11,0.402,0.123,0.609
		c0.326,4.856,4.279,8.729,9.221,8.729c5.152,0,9.326-4.183,9.326-9.339h0.047V91.954c0-8.495,1.156-14.674,3.486-18.513
		c2.336-3.83,6.056-5.758,11.148-5.758c4.391,0,7.534,1.623,9.467,4.852c1.864,3.19,2.797,8.614,2.797,16.297v34.928h0.098
		c0,0.029-0.018,0.055-0.018,0.085c0,5.11,4.145,9.25,9.259,9.25c5.11,0,9.245-4.14,9.245-9.25c0-0.03-0.008-0.056-0.008-0.085
		h0.008V83.805z"/>
	<g>
		<path fill="#FFFFFF" d="M270.519,53.204c-5.128,0-9.288,4.161-9.288,9.297c-7.403-7.674-15.768-11.513-25.094-11.513
			c-10.805,0-19.797,4.004-26.979,12.013c-7.188,8.009-10.775,18.004-10.775,30.017c0,12.238,3.588,22.433,10.775,30.61
			c7.241,8.005,16.402,12.001,27.475,12.001c8.771,0,16.975-3.56,24.598-10.688l0.22,0.204c0.581,4.585,4.339,8.178,9.068,8.178
			c5.148,0,9.301-4.157,9.301-9.297V62.5C279.819,57.365,275.667,53.204,270.519,53.204z M256.044,112.031
			c-4.221,4.716-9.763,7.071-16.619,7.071c-6.415,0-11.729-2.449-15.958-7.33c-4.109-4.813-6.165-11.068-6.165-18.755
			c0-7.178,2.114-13.212,6.335-18.093c4.271-4.822,9.598-7.242,15.958-7.242c6.745,0,12.229,2.394,16.449,7.157
			c4.229,4.877,6.343,11.085,6.343,18.589C262.387,100.954,260.272,107.145,256.044,112.031z"/>
	</g>
	<path fill="#FFFFFF" d="M346.366,57.132c-0.801-1.462-1.962-2.631-3.382-3.509c-1.021-0.458-2.025-0.822-3.017-1.161
		c-2.805-0.954-5.542-1.475-8.212-1.475c-3.678,0-6.869,0.682-9.551,2.055c-2.627,1.313-5.657,3.754-9.051,7.322l-0.187-0.14
		c-1.067-4.013-4.572-7.021-8.915-7.021c-5.195,0-9.398,4.204-9.398,9.407v61.196c0,5.135,4.152,9.288,9.297,9.288
		c4.982,0,8.986-3.949,9.203-8.89c0.017-0.136,0.085-0.255,0.085-0.398c0-0.145-0.068-0.263-0.085-0.398V91.789
		c0-15.254,5.051-22.873,15.144-22.873c1.882,0,3.802,0.449,5.751,1.254c0.203,0.085,0.419,0.195,0.631,0.293
		c1.06,0.411,2.208,0.69,3.415,0.69c0.496,0,0.924-0.212,1.39-0.284c4.581-0.699,8.148-4.479,8.148-9.25
		C347.633,59.966,347.1,58.492,346.366,57.132z"/>
	<g>
		<path fill="#FFFFFF" d="M398.036,61.534c-0.204-0.296-0.411-0.568-0.648-0.834c-0.042-0.047-0.106-0.072-0.157-0.115
			c0.458,0.636,0.865,1.225,1.128,1.619C398.243,61.992,398.172,61.742,398.036,61.534z"/>
		<path fill="#FFFFFF" d="M401.1,94.466c-3.402-3.559-10.013-7.44-19.826-11.669c-7.136-3-10.699-6.051-10.699-9.119
			c0-1.741,0.605-3.187,1.809-4.305c1.212-1.127,2.661-1.691,4.365-1.691c2.475,0.004,4.648,1.208,6.567,3.555
			c0.882,1.339,2.11,2.428,3.572,3.14c1.174,0.572,2.444,0.962,3.835,0.962c4.432,0,7.94-3.313,8.58-7.568
			c0.063-0.432,0.259-0.822,0.259-1.275c0-1.102-0.259-2.131-0.627-3.106c-0.06-0.136-0.072-0.284-0.128-0.415
			c-0.051-0.195-0.084-0.31-0.102-0.237c0,0-0.135-0.221-0.347-0.534c0.067,0.119,0.114,0.246,0.182,0.356
			c-0.377-0.733-0.817-1.432-1.377-2.03c0.017,0.021,0.042,0.03,0.067,0.055c-0.457-0.644-0.957-1.305-1.457-1.864
			c-4.585-5.153-10.467-7.733-17.627-7.733c-6.967,0-12.886,2.267-17.771,6.826c-4.771,4.551-7.152,10.318-7.152,17.279
			c0,5.264,1.406,9.56,4.194,12.911c2.195,2.632,5.975,5.259,11.356,7.895c1.91,0.937,3.813,1.839,5.678,2.712
			c1.855,0.881,3.721,1.788,5.589,2.712c4.826,2.864,7.241,5.937,7.241,9.225c0,5.694-3.127,8.555-9.381,8.555
			c-3.127,0-5.813-1.046-8.068-3.127c-0.66-0.605-1.542-1.788-2.559-3.33c-0.128-0.191-0.246-0.364-0.382-0.551
			c-0.076-0.119-0.136-0.195-0.216-0.322c-0.148-0.229-0.407-0.5-0.725-0.792c-0.568-0.572-1.187-1.064-1.882-1.475
			c-0.254-0.183-0.44-0.302-0.44-0.302c-1.246-0.652-2.602-1.118-4.11-1.118c-4.271,0-7.674,3.025-8.602,7.017
			c-0.152,0.661-0.398,1.28-0.398,1.992c0,1.127,0.263,2.187,0.645,3.187c0.652,1.169,1.377,2.229,2.11,3.263
			c5.703,8.017,13.779,12.085,24.296,12.085c7.848,0,14.534-2.458,20.077-7.395c5.703-5.195,8.551-11.657,8.551-19.386
			C406.197,102.823,404.498,98.026,401.1,94.466z M395.256,59.093c-0.33-0.203-0.593-0.491-0.949-0.644
			C394.663,58.61,394.926,58.89,395.256,59.093z"/>
	</g>
</g>
<g>
	<path fill="#FFFFFF" d="M338.584,15.065c-0.261-1.669-1.349-2.503-3.261-2.503h-0.461l0.368-1.976h7.049l2.183,13.918
		c0.552,3.551,0.91,6.33,1.079,8.336h0.14c2.343-2.25,4.37-4.88,6.085-7.889c1.715-3.008,2.573-5.423,2.573-7.246
		c0-1.103-0.269-1.975-0.804-2.618c-0.537-0.644-1.242-0.965-2.114-0.965c0-1.133,0.307-2.043,0.919-2.733
		c0.613-0.689,1.369-1.033,2.272-1.033c2.128,0,3.193,1.455,3.193,4.363c0,2.849-1.085,6.183-3.25,10.002
		c-2.166,3.82-4.987,7.498-8.463,11.035l-4.226,0.459L338.584,15.065z"/>
	<path fill="#FFFFFF" d="M361.343,12.562l0.415-1.976h8.427l-3.192,15.111c-0.473,2.25-0.713,3.989-0.713,5.214
		c0,1.592,0.521,2.388,1.562,2.388c0.904,0,2.028-0.406,3.377-1.218l0.849,1.378c-2.174,1.868-4.294,2.802-6.36,2.802
		c-1.164,0-2.106-0.421-2.825-1.263c-0.72-0.842-1.078-1.906-1.078-3.192c0-1.409,0.351-3.873,1.056-7.395l1.814-8.635
		c0.104-0.505,0.159-0.918,0.159-1.24c0-1.316-0.956-1.975-2.87-1.975H361.343z M368.968,5.879c-1.76,0-2.641-0.858-2.641-2.572
		c0-0.995,0.255-1.796,0.77-2.4C367.609,0.302,368.295,0,369.152,0c1.761,0,2.641,0.865,2.641,2.595
		c0,1.072-0.265,1.887-0.793,2.446C370.473,5.6,369.793,5.879,368.968,5.879z"/>
	<path fill="#FFFFFF" d="M389.752,17.545c0-1.576-0.371-2.839-1.113-3.789c-0.744-0.949-1.782-1.424-3.112-1.424
		c-1.409,0-2.524,0.379-3.342,1.137c-0.819,0.758-1.229,1.726-1.229,2.905c0,1.042,0.391,1.929,1.172,2.664s1.99,1.462,3.628,2.182
		c3.767,1.685,5.651,4.119,5.651,7.303c0,2.312-0.89,4.179-2.666,5.604c-1.776,1.424-4.134,2.136-7.072,2.136
		c-2.374,0-4.26-0.478-5.661-1.436c-1.401-0.957-2.101-2.246-2.101-3.87c0-1.01,0.277-1.779,0.838-2.307
		c0.559-0.528,1.266-0.793,2.124-0.793c0,1.945,0.472,3.457,1.413,4.536s2.261,1.62,3.96,1.62c3.384,0,5.075-1.456,5.075-4.364
		c0-1.117-0.359-2.062-1.078-2.836c-0.721-0.773-1.945-1.557-3.674-2.354c-2.251-1.071-3.764-2.177-4.537-3.318
		c-0.772-1.141-1.159-2.461-1.159-3.961c0-2.052,0.839-3.732,2.515-5.042c1.678-1.309,3.861-1.964,6.556-1.964
		c2.312,0,4.115,0.43,5.409,1.286c1.293,0.858,1.941,1.915,1.941,3.17C393.289,16.574,392.109,17.545,389.752,17.545z"/>
	<path fill="#FFFFFF" d="M397.467,12.562l0.415-1.976h8.428l-3.193,15.111c-0.474,2.25-0.71,3.989-0.71,5.214
		c0,1.592,0.52,2.388,1.561,2.388c0.905,0,2.027-0.406,3.376-1.218l0.85,1.378c-2.175,1.868-4.294,2.802-6.361,2.802
		c-1.163,0-2.106-0.421-2.825-1.263c-0.72-0.842-1.079-1.906-1.079-3.192c0-1.409,0.352-3.873,1.056-7.395l1.814-8.635
		c0.106-0.505,0.162-0.918,0.162-1.24c0-1.316-0.958-1.975-2.872-1.975H397.467z M405.092,5.879c-1.76,0-2.641-0.858-2.641-2.572
		c0-0.995,0.256-1.796,0.77-2.4C403.733,0.302,404.42,0,405.276,0c1.76,0,2.641,0.865,2.641,2.595c0,1.072-0.265,1.887-0.792,2.446
		C406.596,5.6,405.918,5.879,405.092,5.879z"/>
	<path fill="#FFFFFF" d="M423.005,32.267l0.805,1.746c-2.114,1.5-4.226,2.25-6.339,2.25c-3.415,0-5.122-1.83-5.122-5.489
		c0-1.179,0.154-2.496,0.46-3.95l2.871-13.549h-3.582l0.436-1.883c3.062,0,5.458-2.197,7.188-6.591h2.159l-1.216,5.787h5.694
		l-0.573,2.688h-5.696l-2.849,13.411c-0.383,1.808-0.573,3.155-0.573,4.042c0,1.715,0.834,2.572,2.504,2.572
		C420.439,33.3,421.72,32.955,423.005,32.267z"/>
</g>
</svg>
